name rise42.5664peak47.7979fall81.9185.mot
datacolumns 19
datarows 33
range 5.19331400000000 5.24664900000000
endheader
time	ground_force1_vx	ground_force1_vy	ground_force1_vz	ground_force1_px	ground_force1_py	ground_force1_pz	ground_force2_vx	ground_force2_vy	ground_force2_vz	ground_force2_px	ground_force2_py	ground_force2_pz	ground_torque1_x	ground_torque1_y	ground_torque1_z	ground_torque2_x	ground_torque2_y	ground_torque2_z	
5.19331400000000	-0.47344200000000	695.45116099999996	43.15863800000000	0.17500200000000	0.00000000000000	0.09453000000000	0.00000000000000	0.00000000000000	0.00000000000000	0.00000000000000	0.00000000000000	0.00000000000000	0.00000000000000	14.82971100000000	0.00000000000000	0.00000000000000	0.00000000000000	0.00000000000000	
5.19497600000000	-0.81037800000000	697.27017200000000	43.23675700000000	0.17420200000000	0.00000000000000	0.09448500000000	0.00000000000000	0.00000000000000	0.00000000000000	0.00000000000000	0.00000000000000	0.00000000000000	0.00000000000000	14.89743700000000	0.00000000000000	0.00000000000000	0.00000000000000	0.00000000000000	
5.19664500000000	-1.14282500000000	699.15467999999998	43.31996900000000	0.17339700000000	0.00000000000000	0.09444100000000	0.00000000000000	0.00000000000000	0.00000000000000	0.00000000000000	0.00000000000000	0.00000000000000	0.00000000000000	14.96589300000000	0.00000000000000	0.00000000000000	0.00000000000000	0.00000000000000	
5.19831700000000	-1.47114400000000	701.09998199999995	43.40781200000000	0.17258700000000	0.00000000000000	0.09439700000000	0.00000000000000	0.00000000000000	0.00000000000000	0.00000000000000	0.00000000000000	0.00000000000000	0.00000000000000	15.03495800000000	0.00000000000000	0.00000000000000	0.00000000000000	0.00000000000000	
5.19997900000000	-1.79569600000000	703.10133399999995	43.49982700000000	0.17177200000000	0.00000000000000	0.09435400000000	0.00000000000000	0.00000000000000	0.00000000000000	0.00000000000000	0.00000000000000	0.00000000000000	0.00000000000000	15.10451700000000	0.00000000000000	0.00000000000000	0.00000000000000	0.00000000000000	
5.20164500000000	-2.11683300000000	705.15396599999997	43.59555500000000	0.17095200000000	0.00000000000000	0.09431100000000	0.00000000000000	0.00000000000000	0.00000000000000	0.00000000000000	0.00000000000000	0.00000000000000	0.00000000000000	15.17445800000000	0.00000000000000	0.00000000000000	0.00000000000000	0.00000000000000	
5.20331200000000	-2.43489700000000	707.25309700000003	43.69454300000000	0.17012700000000	0.00000000000000	0.09426900000000	0.00000000000000	0.00000000000000	0.00000000000000	0.00000000000000	0.00000000000000	0.00000000000000	0.00000000000000	15.24467700000000	0.00000000000000	0.00000000000000	0.00000000000000	0.00000000000000	
5.20498400000000	-2.75022300000000	709.39395100000002	43.79634400000000	0.16929700000000	0.00000000000000	0.09422700000000	0.00000000000000	0.00000000000000	0.00000000000000	0.00000000000000	0.00000000000000	0.00000000000000	0.00000000000000	15.31507300000000	0.00000000000000	0.00000000000000	0.00000000000000	0.00000000000000	
5.20664700000000	-3.06313400000000	711.57177400000000	43.90051900000000	0.16846300000000	0.00000000000000	0.09418500000000	0.00000000000000	0.00000000000000	0.00000000000000	0.00000000000000	0.00000000000000	0.00000000000000	0.00000000000000	15.38554900000000	0.00000000000000	0.00000000000000	0.00000000000000	0.00000000000000	
5.20830900000000	-3.37393700000000	713.78184799999997	44.00663800000000	0.16762400000000	0.00000000000000	0.09414300000000	0.00000000000000	0.00000000000000	0.00000000000000	0.00000000000000	0.00000000000000	0.00000000000000	0.00000000000000	15.45601400000000	0.00000000000000	0.00000000000000	0.00000000000000	0.00000000000000	
5.20997600000000	-3.68293100000000	716.01950399999998	44.11428600000000	0.16678100000000	0.00000000000000	0.09410200000000	0.00000000000000	0.00000000000000	0.00000000000000	0.00000000000000	0.00000000000000	0.00000000000000	0.00000000000000	15.52638300000000	0.00000000000000	0.00000000000000	0.00000000000000	0.00000000000000	
5.21164400000000	-3.99039500000000	718.28013799999997	44.22305900000000	0.16593400000000	0.00000000000000	0.09406100000000	0.00000000000000	0.00000000000000	0.00000000000000	0.00000000000000	0.00000000000000	0.00000000000000	0.00000000000000	15.59657400000000	0.00000000000000	0.00000000000000	0.00000000000000	0.00000000000000	
5.21331700000000	-4.29659300000000	720.55922099999998	44.33256800000000	0.16508400000000	0.00000000000000	0.09402000000000	0.00000000000000	0.00000000000000	0.00000000000000	0.00000000000000	0.00000000000000	0.00000000000000	0.00000000000000	15.66651000000000	0.00000000000000	0.00000000000000	0.00000000000000	0.00000000000000	
5.21498000000000	-4.60177400000000	722.85231799999997	44.44244300000000	0.16423000000000	0.00000000000000	0.09397900000000	0.00000000000000	0.00000000000000	0.00000000000000	0.00000000000000	0.00000000000000	0.00000000000000	0.00000000000000	15.73611900000000	0.00000000000000	0.00000000000000	0.00000000000000	0.00000000000000	
5.21664400000000	-4.90616800000000	725.15509199999997	44.55233000000000	0.16337300000000	0.00000000000000	0.09393800000000	0.00000000000000	0.00000000000000	0.00000000000000	0.00000000000000	0.00000000000000	0.00000000000000	0.00000000000000	15.80533300000000	0.00000000000000	0.00000000000000	0.00000000000000	0.00000000000000	
5.21831700000000	-5.20998500000000	727.46331999999995	44.66189600000000	0.16251300000000	0.00000000000000	0.09389700000000	0.00000000000000	0.00000000000000	0.00000000000000	0.00000000000000	0.00000000000000	0.00000000000000	0.00000000000000	15.87408900000000	0.00000000000000	0.00000000000000	0.00000000000000	0.00000000000000	
5.21997600000000	-5.51341900000000	729.77290500000004	44.77082800000000	0.16165100000000	0.00000000000000	0.09385600000000	0.00000000000000	0.00000000000000	0.00000000000000	0.00000000000000	0.00000000000000	0.00000000000000	0.00000000000000	15.94232500000000	0.00000000000000	0.00000000000000	0.00000000000000	0.00000000000000	
5.22164200000000	-5.81664300000000	732.07988000000000	44.87883400000000	0.16078700000000	0.00000000000000	0.09381600000000	0.00000000000000	0.00000000000000	0.00000000000000	0.00000000000000	0.00000000000000	0.00000000000000	0.00000000000000	16.00998800000000	0.00000000000000	0.00000000000000	0.00000000000000	0.00000000000000	
5.22331500000000	-6.11980900000000	734.38042099999996	44.98564700000000	0.15992000000000	0.00000000000000	0.09377500000000	0.00000000000000	0.00000000000000	0.00000000000000	0.00000000000000	0.00000000000000	0.00000000000000	0.00000000000000	16.07702200000000	0.00000000000000	0.00000000000000	0.00000000000000	0.00000000000000	
5.22498000000000	-6.42305100000000	736.67085399999996	45.09102200000000	0.15905300000000	0.00000000000000	0.09373400000000	0.00000000000000	0.00000000000000	0.00000000000000	0.00000000000000	0.00000000000000	0.00000000000000	0.00000000000000	16.14338000000000	0.00000000000000	0.00000000000000	0.00000000000000	0.00000000000000	
5.22664900000000	-6.72648200000000	738.94766300000003	45.19473900000000	0.15818300000000	0.00000000000000	0.09369300000000	0.00000000000000	0.00000000000000	0.00000000000000	0.00000000000000	0.00000000000000	0.00000000000000	0.00000000000000	16.20901400000000	0.00000000000000	0.00000000000000	0.00000000000000	0.00000000000000	
5.22830900000000	-7.03019400000000	741.20749300000000	45.29660400000000	0.15731300000000	0.00000000000000	0.09365100000000	0.00000000000000	0.00000000000000	0.00000000000000	0.00000000000000	0.00000000000000	0.00000000000000	0.00000000000000	16.27388000000000	0.00000000000000	0.00000000000000	0.00000000000000	0.00000000000000	
5.22997900000000	-7.33426100000000	743.44715900000006	45.39644500000000	0.15644200000000	0.00000000000000	0.09361000000000	0.00000000000000	0.00000000000000	0.00000000000000	0.00000000000000	0.00000000000000	0.00000000000000	0.00000000000000	16.33793700000000	0.00000000000000	0.00000000000000	0.00000000000000	0.00000000000000	
5.23164200000000	-7.63873400000000	745.66364999999996	45.49412100000000	0.15557100000000	0.00000000000000	0.09356900000000	0.00000000000000	0.00000000000000	0.00000000000000	0.00000000000000	0.00000000000000	0.00000000000000	0.00000000000000	16.40114500000000	0.00000000000000	0.00000000000000	0.00000000000000	0.00000000000000	
5.23331100000000	-7.94364800000000	747.85412899999994	45.58951300000000	0.15469900000000	0.00000000000000	0.09352700000000	0.00000000000000	0.00000000000000	0.00000000000000	0.00000000000000	0.00000000000000	0.00000000000000	0.00000000000000	16.46346700000000	0.00000000000000	0.00000000000000	0.00000000000000	0.00000000000000	
5.23498100000000	-8.24901700000000	750.01594000000000	45.68252900000000	0.15382700000000	0.00000000000000	0.09348600000000	0.00000000000000	0.00000000000000	0.00000000000000	0.00000000000000	0.00000000000000	0.00000000000000	0.00000000000000	16.52486500000000	0.00000000000000	0.00000000000000	0.00000000000000	0.00000000000000	
5.23664700000000	-8.55483600000000	752.14660800000001	45.77310500000000	0.15295600000000	0.00000000000000	0.09344400000000	0.00000000000000	0.00000000000000	0.00000000000000	0.00000000000000	0.00000000000000	0.00000000000000	0.00000000000000	16.58530500000000	0.00000000000000	0.00000000000000	0.00000000000000	0.00000000000000	
5.23831200000000	-8.86108300000000	754.24384099999997	45.86120000000000	0.15208400000000	0.00000000000000	0.09340200000000	0.00000000000000	0.00000000000000	0.00000000000000	0.00000000000000	0.00000000000000	0.00000000000000	0.00000000000000	16.64475300000000	0.00000000000000	0.00000000000000	0.00000000000000	0.00000000000000	
5.23997600000000	-9.16771800000000	756.30552599999999	45.94680000000000	0.15121400000000	0.00000000000000	0.09336100000000	0.00000000000000	0.00000000000000	0.00000000000000	0.00000000000000	0.00000000000000	0.00000000000000	0.00000000000000	16.70317400000000	0.00000000000000	0.00000000000000	0.00000000000000	0.00000000000000	
5.24164200000000	-9.47468700000000	758.32973600000003	46.02991700000000	0.15034400000000	0.00000000000000	0.09331900000000	0.00000000000000	0.00000000000000	0.00000000000000	0.00000000000000	0.00000000000000	0.00000000000000	0.00000000000000	16.76053600000000	0.00000000000000	0.00000000000000	0.00000000000000	0.00000000000000	
5.24331100000000	-9.78191700000000	760.31471999999997	46.11058600000000	0.14947400000000	0.00000000000000	0.09327700000000	0.00000000000000	0.00000000000000	0.00000000000000	0.00000000000000	0.00000000000000	0.00000000000000	0.00000000000000	16.81680600000000	0.00000000000000	0.00000000000000	0.00000000000000	0.00000000000000	
5.24497700000000	-10.08932300000000	762.25890800000002	46.18886900000000	0.14860600000000	0.00000000000000	0.09323500000000	0.00000000000000	0.00000000000000	0.00000000000000	0.00000000000000	0.00000000000000	0.00000000000000	0.00000000000000	16.87195000000000	0.00000000000000	0.00000000000000	0.00000000000000	0.00000000000000	
5.24664900000000	-10.39680600000000	764.16090399999996	46.26484700000000	0.14773800000000	0.00000000000000	0.09319300000000	0.00000000000000	0.00000000000000	0.00000000000000	0.00000000000000	0.00000000000000	0.00000000000000	0.00000000000000	16.92593500000000	0.00000000000000	0.00000000000000	0.00000000000000	0.00000000000000	
